<svg xmlns="http://www.w3.org/2000/svg" version="1.1" xmlns:xlink="http://www.w3.org/1999/xlink" xmlns:svgjs="http://svgjs.dev/svgjs" width="1980" height="1080" preserveAspectRatio="none" viewBox="0 0 1980 1080"><g mask="url(&quot;#SvgjsMask1018&quot;)" fill="none"><rect width="1980" height="1080" x="0" y="0" fill="url(&quot;#SvgjsLinearGradient1019&quot;)"></rect><path d="M257.72 1093.9C519.81 948.45 493.37 109.08 869.8 62.94 1246.23 16.8 1175.84 197.94 1481.88 197.94 1787.92 197.94 1937.26 63.74 2093.96 62.94" stroke="rgba(78, 115, 223, 1)" stroke-width="2"></path><path d="M382.28 1270.69C533.17 1263.98 652.61 1008.81 926.63 1008.6 1200.65 1008.39 1198.8 1143.6 1470.97 1143.6 1743.15 1143.6 1875.11 1009.6 2015.32 1008.6" stroke="rgba(78, 115, 223, 1)" stroke-width="2"></path><path d="M378.38 1241.77C688.68 1187.41 839.7 421.75 1331.85 417.88 1824 414.01 2032.73 747.86 2285.32 752.68" stroke="rgba(78, 115, 223, 1)" stroke-width="2"></path><path d="M111.28 1130.57C343.4 1062.19 399.52 419.03 751.97 405.05 1104.42 391.07 1072.31 540.05 1392.66 540.05 1713 540.05 1869.66 405.78 2033.35 405.05" stroke="rgba(78, 115, 223, 1)" stroke-width="2"></path><path d="M536.51 1263.75C777.85 1137.34 763.18 374.03 1109.39 336.74 1455.6 299.45 1395.83 471.74 1682.26 471.74 1968.7 471.74 2108 337.65 2255.14 336.74" stroke="rgba(78, 115, 223, 1)" stroke-width="2"></path></g><defs><mask id="SvgjsMask1018"><rect width="1980" height="1080" fill="#ffffff"></rect></mask><linearGradient x1="11.36%" y1="-20.83%" x2="88.64%" y2="120.83%" gradientUnits="userSpaceOnUse" id="SvgjsLinearGradient1019"><stop stop-color="#0e2a47" offset="0"></stop><stop stop-color="rgba(78, 115, 223, 1)" offset="1"></stop></linearGradient></defs></svg>